# xmcd
# 
# Track frame offsets:
#     150
#     29060
#     52125
#     91087
#     104225
#     132310
#     176465
# 
# Disc length: 2760
# 
# Revision: 5
# Processed by: cddbd v1.5.2PL0 Copyright (c) Steve Scherf et al.
# Submitted via: BonkEnc v1.0.8
# 
DISCID=630ac607
DTITLE=Rory Gallagher live - Live! In Europe
DYEAR=1972
DGENRE=Blues-Rock
TTITLE0=Messin' With The Kid
TTITLE1=Laundromat
TTITLE2=I Could've Had Religion
TTITLE3=Pistol Slapper Blues
TTITLE4=Going To My Hometown
TTITLE5=In Your Town
TTITLE6=Bullfrog Blues
EXTD=
EXTT0=
EXTT1=
EXTT2=
EXTT3=
EXTT4=
EXTT5=
EXTT6=
PLAYORDER=
